<svg id="Layer_1" data-name="Layer 1" xmlns="http://www.w3.org/2000/svg" viewBox="0 0 386.84 337.12"><defs><style>.cls-1,.cls-3{fill:#ed1c24;}.cls-2{fill:#231f20;}.cls-3{font-size:38.33px;font-family:Futura-Medium, Futura;}.cls-4{letter-spacing:0em;}.cls-5{letter-spacing:0.01em;}.cls-6{letter-spacing:-0.04em;}.cls-7{letter-spacing:0.04em;}.cls-8{letter-spacing:-0.04em;}.cls-9{letter-spacing:-0.04em;}.cls-10{letter-spacing:-0.03em;}.cls-11{letter-spacing:0.01em;}</style></defs><title>Hat_03</title><circle class="cls-1" cx="105.17" cy="65.42" r="4.12"/><circle class="cls-1" cx="282.02" cy="288.6" r="4.12" transform="translate(-211.13 176.93) rotate(-65.05)"/><circle class="cls-1" cx="119.53" cy="44.38" r="4.12"/><circle class="cls-1" cx="143.03" cy="32.62" r="4.12"/><circle class="cls-2" cx="106.73" cy="67.77" r="4.12"/><circle class="cls-1" cx="98.86" cy="90.55" r="4.12"/><circle class="cls-2" cx="100.42" cy="92.9" r="4.12"/><circle class="cls-1" cx="208.04" cy="363.44" r="4.12" transform="translate(-321.26 77.11) rotate(-54.63)"/><circle class="cls-2" cx="210.86" cy="363.53" r="4.12" transform="translate(-320.15 79.45) rotate(-54.63)"/><circle class="cls-1" cx="243.93" cy="401.54" r="4.12" transform="translate(-231.68 -142.23) rotate(-19.33)"/><circle class="cls-2" cx="245.63" cy="399.3" r="4.12" transform="translate(-230.84 -141.79) rotate(-19.33)"/><circle class="cls-1" cx="278.23" cy="397.92" r="4.12" transform="translate(-303.36 277.67) rotate(-70)"/><circle class="cls-2" cx="277.58" cy="395.18" r="4.12" transform="translate(-301.21 275.25) rotate(-70)"/><circle class="cls-1" cx="301.13" cy="391.91" r="4.12" transform="translate(-225.85 -122.94) rotate(-19.46)"/><circle class="cls-2" cx="298.88" cy="390.21" r="4.12" transform="translate(-225.42 -123.78) rotate(-19.46)"/><circle class="cls-1" cx="218.5" cy="387.12" r="4.12" transform="translate(-256.01 -116.5) rotate(-25.08)"/><circle class="cls-2" cx="219.97" cy="384.71" r="4.12" transform="translate(-254.85 -116.1) rotate(-25.08)"/><circle class="cls-1" cx="194.51" cy="385.56" r="4.12" transform="translate(-348.96 112.22) rotate(-59.55)"/><circle class="cls-2" cx="197.33" cy="385.41" r="4.12" transform="translate(-347.44 114.57) rotate(-59.55)"/><circle class="cls-1" cx="179.18" cy="374.42" r="4.12" transform="translate(-157.6 -220.48) rotate(-7.13)"/><circle class="cls-2" cx="181.01" cy="376.57" r="4.12" transform="translate(-157.85 -220.24) rotate(-7.13)"/><circle class="cls-1" cx="175.85" cy="354.32" r="4.12" transform="translate(-304.25 -37.39) rotate(-41.93)"/><circle class="cls-2" cx="175.14" cy="357.05" r="4.12" transform="translate(-306.26 -37.17) rotate(-41.93)"/><circle class="cls-1" cx="177.58" cy="335.65" r="4.12" transform="translate(-125.79 -238.25) rotate(-2.29)"/><circle class="cls-2" cx="179.23" cy="337.94" r="4.12" transform="translate(-125.88 -238.18) rotate(-2.29)"/><circle class="cls-1" cx="183.94" cy="313.38" r="4.12" transform="translate(-291.73 55.26) rotate(-57.62)"/><circle class="cls-2" cx="184" cy="316.2" r="4.12" transform="matrix(0.54, -0.84, 0.84, 0.54, -294.09, 56.62)"/><circle class="cls-1" cx="188.79" cy="294.65" r="4.12" transform="translate(-161.57 -207.65) rotate(-10.17)"/><circle class="cls-2" cx="190.74" cy="296.69" r="4.12" transform="translate(-161.9 -207.28) rotate(-10.17)"/><circle class="cls-1" cx="197.05" cy="275.09" r="4.12" transform="translate(-244.57 108.14) rotate(-67.83)"/><circle class="cls-2" cx="197.6" cy="277.85" r="4.12" transform="matrix(0.38, -0.93, 0.93, 0.38, -246.78, 110.38)"/><circle class="cls-1" cx="213.96" cy="262.92" r="4.12" transform="translate(-229.62 -55.47) rotate(-38.46)"/><circle class="cls-2" cx="213.09" cy="265.6" r="4.12" transform="translate(-231.48 -55.43) rotate(-38.46)"/><circle class="cls-1" cx="230.51" cy="255.06" r="4.12" transform="translate(-150.29 -205.52) rotate(-9.19)"/><circle class="cls-2" cx="228.44" cy="256.98" r="4.12" transform="translate(-150.63 -205.83) rotate(-9.19)"/><circle class="cls-1" cx="250.48" cy="249.74" r="4.12" transform="translate(-195.9 -112.67) rotate(-25.63)"/><circle class="cls-2" cx="249.03" cy="252.16" r="4.12" transform="translate(-197.09 -113.06) rotate(-25.63)"/><circle class="cls-1" cx="266.54" cy="254.37" r="4.12" transform="matrix(0.07, -1, 1, 0.07, -117.82, 257.44)"/><circle class="cls-2" cx="264.09" cy="255.76" r="4.12" transform="translate(-121.49 256.3) rotate(-86.11)"/><circle class="cls-1" cx="281.19" cy="260.32" r="4.12" transform="translate(-188.38 -124.39) rotate(-21.51)"/><circle class="cls-2" cx="279.57" cy="262.64" r="4.12" transform="translate(-189.34 -124.82) rotate(-21.51)"/><circle class="cls-1" cx="302.67" cy="260.78" r="4.12" transform="translate(-90.54 299.47) rotate(-86.11)"/><circle class="cls-2" cx="300.22" cy="262.18" r="4.12" transform="translate(-94.22 298.32) rotate(-86.11)"/><circle class="cls-1" cx="323.93" cy="261.25" r="4.12" transform="translate(-202.52 58.51) rotate(-44.8)"/><circle class="cls-2" cx="323.36" cy="264.02" r="4.12" transform="translate(-204.63 58.91) rotate(-44.8)"/><circle class="cls-1" cx="340.33" cy="264.65" r="4.12" transform="translate(-199.53 -37.89) rotate(-30.28)"/><circle class="cls-2" cx="342.86" cy="265.9" r="4.12" transform="translate(-199.81 -36.44) rotate(-30.28)"/><circle class="cls-1" cx="359.18" cy="275.62" r="4.12" transform="translate(-185.95 -103.47) rotate(-20.35)"/><circle class="cls-2" cx="361.46" cy="277.28" r="4.12" transform="translate(-186.39 -102.58) rotate(-20.35)"/><circle class="cls-1" cx="301.48" cy="127.79" r="4.12"/><circle class="cls-2" cx="299.13" cy="129.34" r="4.12"/><circle class="cls-1" cx="398.28" cy="358.23" r="4.12" transform="translate(-212 310.56) rotate(-63.66)"/><circle class="cls-2" cx="398.63" cy="361.02" r="4.12" transform="translate(-214.31 312.43) rotate(-63.66)"/><circle class="cls-1" cx="376.89" cy="293.27" r="4.12" transform="translate(-188.94 -102.54) rotate(-19.56)"/><circle class="cls-2" cx="379.14" cy="294.96" r="4.12" transform="matrix(0.94, -0.33, 0.33, 0.94, -189.37, -101.69)"/><circle class="cls-2" cx="383.26" cy="318.44" r="4.12" transform="translate(-227.52 67.59) rotate(-39.12)"/><circle class="cls-2" cx="282.44" cy="291.39" r="4.12" transform="translate(-213.42 178.92) rotate(-65.05)"/><circle class="cls-2" cx="121.08" cy="46.73" r="4.12"/><circle class="cls-1" cx="312.49" cy="368.26" r="4.12" transform="translate(-281.81 156.49) rotate(-53.7)"/><circle class="cls-1" cx="184.81" cy="64.25" r="4.12"/><circle class="cls-1" cx="194.61" cy="95.84" r="4.12"/><circle class="cls-2" cx="309.84" cy="369.23" r="4.12" transform="translate(-283.68 154.75) rotate(-53.7)"/><circle class="cls-1" cx="265.57" cy="410.98" r="4.12" transform="translate(-310.7 9.28) rotate(-38.53)"/><circle class="cls-2" cx="265.32" cy="408.17" r="4.12" transform="translate(-309 8.52) rotate(-38.53)"/><circle class="cls-1" cx="335.92" cy="424.4" r="4.12" transform="translate(-307.25 72.18) rotate(-40.28)"/><circle class="cls-2" cx="335.59" cy="421.6" r="4.12" transform="translate(-305.51 71.3) rotate(-40.28)"/><circle class="cls-1" cx="318.07" cy="414.96" r="4.12" transform="translate(-206.93 -151.93) rotate(-14.62)"/><circle class="cls-2" cx="318.99" cy="412.29" r="4.12" transform="translate(-206.22 -151.78) rotate(-14.62)"/><circle class="cls-1" cx="295.25" cy="416.25" r="4.12" transform="translate(-191.99 -175.8) rotate(-11.9)"/><circle class="cls-2" cx="296.29" cy="413.62" r="4.12" transform="translate(-191.42 -175.65) rotate(-11.9)"/><circle class="cls-1" cx="355.2" cy="430.99" r="4.12" transform="translate(-239.35 467.45) rotate(-80.84)"/><circle class="cls-2" cx="357.11" cy="428.92" r="4.12" transform="translate(-235.69 467.59) rotate(-80.84)"/><circle class="cls-1" cx="380.75" cy="436.6" r="4.12" transform="translate(-164.89 -193.71) rotate(-7.3)"/><circle class="cls-2" cx="382" cy="434.07" r="4.12" transform="translate(-164.56 -193.57) rotate(-7.3)"/><circle class="cls-1" cx="405.81" cy="427.12" r="4.12" transform="translate(-254.4 398.62) rotate(-68.09)"/><circle class="cls-2" cx="404.21" cy="424.8" r="4.12" transform="translate(-253.25 395.68) rotate(-68.09)"/><circle class="cls-1" cx="422.66" cy="413.93" r="4.12" transform="translate(-232.12 -68.17) rotate(-20.84)"/><circle class="cls-2" cx="419.91" cy="413.32" r="4.12" transform="translate(-232.08 -69.19) rotate(-20.84)"/><circle class="cls-1" cx="428.22" cy="392.21" r="4.12" transform="translate(-252.71 27.84) rotate(-30.69)"/><circle class="cls-2" cx="425.4" cy="392.07" r="4.12" transform="translate(-253.03 26.38) rotate(-30.69)"/><circle class="cls-1" cx="388.78" cy="335.98" r="4.12" transform="translate(-198.03 -107.31) rotate(-18.21)"/><circle class="cls-2" cx="388.04" cy="338.7" r="4.12" transform="translate(-198.92 -107.4) rotate(-18.21)"/><circle class="cls-1" cx="381.38" cy="316.43" r="4.12" transform="translate(-226.67 65.95) rotate(-39.12)"/><circle class="cls-2" cx="383.11" cy="318.56" r="4.12" transform="translate(-227.63 67.52) rotate(-39.12)"/><circle class="cls-2" cx="183.26" cy="66.6" r="4.12"/><circle class="cls-2" cx="193.05" cy="98.2" r="4.12"/><circle class="cls-2" cx="143.03" cy="34.97" r="4.12"/><text class="cls-3" transform="translate(0.13 280.21)"><tspan class="cls-4">C</tspan><tspan x="26.67" y="0">O</tspan><tspan class="cls-5" x="60.93" y="0">N</tspan><tspan x="93.59" y="0">GR</tspan><tspan class="cls-6" x="148.96" y="0">A</tspan><tspan x="175.74" y="0">TU</tspan><tspan class="cls-7" x="222.56" y="0">L</tspan><tspan class="cls-8" x="241.16" y="0">A</tspan><tspan x="267.95" y="0">TIONS</tspan></text><text class="cls-3" transform="translate(0.13 326.06)"><tspan class="cls-9">Y</tspan><tspan x="21.54" y="0">OU </tspan><tspan class="cls-10" x="95.95" y="0">W</tspan><tspan x="135.29" y="0">ON BE</tspan><tspan class="cls-11" x="258.08" y="0">S</tspan><tspan x="280.98" y="0">T H</tspan><tspan class="cls-6" x="339.41" y="0">A</tspan><tspan x="366.2" y="0">T</tspan></text></svg>