<svg id="Layer_1" data-name="Layer 1" xmlns="http://www.w3.org/2000/svg" viewBox="0 0 442.76 368.46"><defs><style>.cls-1,.cls-3{fill:#ed1c24;}.cls-2{fill:#231f20;}.cls-3{font-size:38.33px;font-family:Futura-Medium, Futura;}.cls-4{letter-spacing:-0.04em;}.cls-5{letter-spacing:-0.04em;}</style></defs><title>Hat_02</title><circle class="cls-1" cx="119.59" cy="224.42" r="4.12"/><circle class="cls-1" cx="179.25" cy="245.04" r="4.12"/><circle class="cls-1" cx="146.41" cy="234.37" r="4.12"/><circle class="cls-1" cx="220.11" cy="249.33" r="4.12"/><circle class="cls-2" cx="121.15" cy="226.77" r="4.12"/><circle class="cls-1" cx="106.46" cy="203.64" r="4.12"/><circle class="cls-2" cx="108.02" cy="205.99" r="4.12"/><circle class="cls-1" cx="193.79" cy="390.66" r="4.12" transform="translate(-321.57 112.17) rotate(-54.63)"/><circle class="cls-2" cx="196.61" cy="390.75" r="4.12" transform="translate(-320.46 114.51) rotate(-54.63)"/><circle class="cls-1" cx="134.7" cy="164.94" r="4.12"/><circle class="cls-2" cx="136.26" cy="167.29" r="4.12"/><circle class="cls-1" cx="147.19" cy="147.05" r="4.12"/><circle class="cls-2" cx="148.75" cy="149.4" r="4.12"/><circle class="cls-1" cx="147.19" cy="120.13" r="4.12"/><circle class="cls-2" cx="148.75" cy="122.48" r="4.12"/><circle class="cls-1" cx="147.19" cy="93.36" r="4.12"/><circle class="cls-2" cx="148.75" cy="95.72" r="4.12"/><circle class="cls-1" cx="147.19" cy="66.44" r="4.12"/><circle class="cls-2" cx="148.75" cy="68.8" r="4.12"/><circle class="cls-1" cx="147.19" cy="42.02" r="4.12"/><circle class="cls-2" cx="148.75" cy="44.37" r="4.12"/><circle class="cls-1" cx="147.19" cy="15.1" r="4.12"/><circle class="cls-2" cx="148.75" cy="17.45" r="4.12"/><circle class="cls-1" cx="163.15" cy="5.31" r="4.12"/><circle class="cls-2" cx="160.79" cy="6.87" r="4.12"/><circle class="cls-1" cx="194.66" cy="5.31" r="4.12"/><circle class="cls-2" cx="192.31" cy="6.87" r="4.12"/><circle class="cls-2" cx="221.47" cy="6.87" r="4.12"/><circle class="cls-2" cx="180.81" cy="247.39" r="4.12"/><circle class="cls-2" cx="147.97" cy="236.72" r="4.12"/><circle class="cls-1" cx="323.16" cy="224.42" r="4.12"/><circle class="cls-1" cx="263.51" cy="245.04" r="4.12"/><circle class="cls-1" cx="296.35" cy="234.37" r="4.12"/><circle class="cls-2" cx="321.6" cy="226.77" r="4.12"/><circle class="cls-1" cx="336.29" cy="203.64" r="4.12"/><circle class="cls-2" cx="334.74" cy="205.99" r="4.12"/><circle class="cls-1" cx="418.21" cy="390.67" r="4.12" transform="translate(-233.26 101.49) rotate(-35.14)"/><circle class="cls-2" cx="415.39" cy="390.75" r="4.12" transform="translate(-233.82 99.88) rotate(-35.14)"/><circle class="cls-1" cx="308.06" cy="164.94" r="4.12"/><circle class="cls-2" cx="306.5" cy="167.29" r="4.12"/><circle class="cls-1" cx="295.57" cy="147.05" r="4.12"/><circle class="cls-2" cx="294.01" cy="149.4" r="4.12"/><circle class="cls-1" cx="295.57" cy="120.13" r="4.12"/><circle class="cls-2" cx="294.01" cy="122.48" r="4.12"/><circle class="cls-1" cx="295.57" cy="93.36" r="4.12"/><circle class="cls-2" cx="294.01" cy="95.72" r="4.12"/><circle class="cls-1" cx="295.57" cy="66.44" r="4.12"/><circle class="cls-2" cx="294.01" cy="68.8" r="4.12"/><circle class="cls-1" cx="295.57" cy="42.02" r="4.12"/><circle class="cls-2" cx="294.01" cy="44.37" r="4.12"/><circle class="cls-1" cx="295.57" cy="15.1" r="4.12"/><circle class="cls-2" cx="294.01" cy="17.45" r="4.12"/><circle class="cls-1" cx="279.61" cy="5.31" r="4.12"/><circle class="cls-2" cx="281.96" cy="6.87" r="4.12"/><circle class="cls-1" cx="248.09" cy="5.31" r="4.12"/><circle class="cls-2" cx="250.45" cy="6.87" r="4.12"/><circle class="cls-1" cx="221.28" cy="4.12" r="4.12"/><circle class="cls-2" cx="221.28" cy="6.87" r="4.12"/><circle class="cls-2" cx="261.95" cy="247.39" r="4.12"/><circle class="cls-2" cx="294.79" cy="236.72" r="4.12"/><circle class="cls-2" cx="220.11" cy="251.68" r="4.12"/><text class="cls-3" transform="translate(0 357.4)">HERE IS <tspan class="cls-4" x="151.86" y="0">Y</tspan><tspan x="173.4" y="0">OUR MEH H</tspan><tspan class="cls-5" x="397.48" y="0">A</tspan><tspan x="424.26" y="0">T</tspan></text></svg>