<svg id="Layer_1" data-name="Layer 1" xmlns="http://www.w3.org/2000/svg" viewBox="0 0 344.28 283.7"><defs><style>.cls-1,.cls-3{fill:#ed1c24;}.cls-2{fill:#231f20;}.cls-3{font-size:38.33px;font-family:Futura-Medium, Futura;}.cls-4{letter-spacing:-0.04em;}.cls-5{letter-spacing:-0.04em;}</style></defs><title>Hat_01</title><circle class="cls-1" cx="10.9" cy="127.47" r="4.12"/><circle class="cls-1" cx="129.9" cy="153.69" r="4.12"/><circle class="cls-1" cx="68.04" cy="131.59" r="4.12"/><circle class="cls-1" cx="81.6" cy="71.03" r="4.12"/><circle class="cls-1" cx="125.78" cy="27.17" r="4.12"/><circle class="cls-1" cx="201.53" cy="4.12" r="4.12"/><circle class="cls-1" cx="288.98" cy="31.29" r="4.12"/><circle class="cls-1" cx="251.9" cy="4.12" r="4.12"/><circle class="cls-1" cx="288.98" cy="147.79" r="4.12"/><circle class="cls-1" cx="233.43" cy="137.61" r="4.12"/><circle class="cls-1" cx="183.57" cy="157.81" r="4.12"/><circle class="cls-1" cx="319.28" cy="75.15" r="4.12"/><circle class="cls-1" cx="333.38" cy="135.71" r="4.12"/><circle class="cls-2" cx="12.46" cy="129.82" r="4.12"/><circle class="cls-2" cx="131.46" cy="156.05" r="4.12"/><circle class="cls-2" cx="69.6" cy="133.94" r="4.12"/><circle class="cls-2" cx="83.16" cy="73.38" r="4.12"/><circle class="cls-2" cx="127.34" cy="29.52" r="4.12"/><circle class="cls-2" cx="203.09" cy="6.47" r="4.12"/><circle class="cls-2" cx="290.53" cy="33.64" r="4.12"/><circle class="cls-2" cx="253.46" cy="6.47" r="4.12"/><circle class="cls-2" cx="290.53" cy="150.15" r="4.12"/><circle class="cls-2" cx="234.98" cy="139.96" r="4.12"/><circle class="cls-2" cx="185.12" cy="160.16" r="4.12"/><circle class="cls-2" cx="320.83" cy="77.5" r="4.12"/><circle class="cls-2" cx="334.94" cy="138.06" r="4.12"/><text class="cls-3" transform="translate(0 272.63)">HERE IS <tspan class="cls-4" x="151.86" y="0">Y</tspan><tspan x="173.4" y="0">OUR H</tspan><tspan class="cls-5" x="299" y="0">A</tspan><tspan x="325.79" y="0">T</tspan></text></svg>